<?xml version="1.0" standalone="no"?>
<!DOCTYPE svg PUBLIC "-//W3C//DTD SVG 20010904//EN"
 "http://www.w3.org/TR/2001/REC-SVG-20010904/DTD/svg10.dtd">
<svg version="1.0" xmlns="http://www.w3.org/2000/svg"
 width="300.000000pt" height="300.000000pt" viewBox="0 0 300.000000 300.000000"
 preserveAspectRatio="xMidYMid meet">
<metadata>
Created by potrace 1.11, written by Peter Selinger 2001-2013
</metadata>
<g transform="translate(0.000000,300.000000) scale(0.100000,-0.100000)"
fill="#000000" stroke="none">
<path d="M1488 2973 c-7 -17 8 -2252 14 -2259 5 -4 65 -2 135 5 71 6 218 18
328 26 109 8 202 18 206 23 4 4 10 393 13 865 l6 857 -98 71 c-215 157 -587
419 -594 419 -4 0 -8 -3 -10 -7z m154 -160 c35 -27 105 -77 156 -113 231 -162
298 -211 315 -231 16 -20 17 -74 17 -821 0 -532 -3 -806 -10 -819 -7 -12 -21
-19 -40 -19 -33 0 -38 11 -42 90 l-3 45 -200 132 c-110 73 -203 129 -208 124
-4 -4 -7 -41 -5 -81 l3 -73 125 -78 c69 -44 146 -91 173 -106 65 -36 65 -63
-2 -63 -32 0 -53 5 -61 16 -21 25 -222 154 -231 148 -5 -3 -9 -33 -9 -66 0
-50 4 -66 22 -85 19 -20 20 -25 8 -34 -8 -5 -33 -8 -55 -7 l-40 3 -5 1035 c-3
569 -4 1038 -2 1043 7 16 34 5 94 -40z"/>
<path d="M1625 2637 c-3 -8 -5 -45 -3 -82 l3 -68 178 -112 c97 -61 183 -117
189 -123 7 -7 20 -12 30 -12 17 0 19 8 16 72 l-3 72 -90 60 c-317 213 -314
211 -320 193z"/>
<path d="M1624 2397 c-3 -8 -4 -45 -2 -82 l3 -68 150 -94 c83 -51 169 -107
193 -123 44 -31 68 -37 74 -20 2 5 1 38 -2 72 l-5 63 -75 50 c-100 67 -300
198 -317 208 -8 5 -15 3 -19 -6z"/>
<path d="M1627 2163 c-4 -3 -7 -39 -7 -78 l0 -72 38 -26 c20 -14 96 -61 167
-105 72 -44 142 -89 157 -101 49 -39 59 -30 56 51 l-3 72 -106 71 c-58 38
-136 90 -174 115 -38 25 -81 53 -96 62 -14 10 -29 15 -32 11z"/>
<path d="M1626 1923 c-13 -14 -6 -141 9 -157 8 -8 86 -59 173 -112 86 -54 166
-106 178 -116 11 -10 28 -18 38 -18 15 0 16 9 14 72 l-3 72 -55 37 c-67 45
-321 212 -336 222 -6 3 -14 4 -18 0z"/>
<path d="M1626 1683 c-11 -12 -6 -139 7 -155 6 -8 90 -64 185 -123 95 -59 175
-111 178 -116 3 -5 14 -9 25 -9 18 0 20 6 17 73 l-3 72 -90 60 c-109 72 -284
187 -300 197 -7 4 -15 5 -19 1z"/>
<path d="M1620 1370 c0 -82 0 -82 119 -155 45 -27 126 -78 178 -112 53 -35
102 -63 110 -63 11 0 13 16 11 72 l-3 73 -90 59 c-49 33 -136 90 -193 128 -56
37 -109 68 -117 68 -12 0 -15 -15 -15 -70z"/>
<path d="M1117 2632 l-297 -297 7 -815 8 -815 299 2 c164 1 302 5 307 10 5 5
9 504 9 1108 0 1046 0 1100 -17 1102 -11 0 -131 -111 -316 -295z"/>
<path d="M2237 1903 c-12 -11 -8 -1111 4 -1118 13 -9 436 -8 449 0 6 4 10 157
10 409 l0 403 -22 20 c-13 11 -110 78 -216 148 -106 70 -195 131 -198 136 -6
11 -18 12 -27 2z"/>
<path d="M713 1827 c-15 -13 -98 -70 -183 -127 -85 -57 -172 -116 -192 -132
l-37 -29 -1 -409 c0 -261 3 -411 10 -415 7 -4 361 -9 448 -5 9 0 12 121 12
570 0 623 3 595 -57 547z"/>
<path d="M1841 205 c-26 -23 -31 -34 -31 -73 0 -36 6 -52 27 -74 23 -24 34
-28 84 -28 37 0 61 5 69 15 20 24 2 37 -41 30 -53 -9 -76 1 -84 35 -11 50 7
69 73 72 49 3 57 6 57 23 0 18 -8 20 -61 23 -54 3 -65 0 -93 -23z"/>
<path d="M2121 201 c-26 -24 -31 -37 -31 -74 0 -38 5 -49 31 -71 26 -22 40
-26 92 -26 86 0 117 25 119 94 0 44 -3 53 -31 78 -27 24 -40 28 -90 28 -51 0
-63 -4 -90 -29z m149 -40 c26 -50 0 -91 -59 -91 -40 0 -54 10 -66 48 -11 36
19 62 71 62 33 0 46 -5 54 -19z"/>
<path d="M2475 223 c-50 -8 -55 -18 -55 -108 0 -128 14 -147 48 -64 l21 50 48
-3 c41 -3 50 -7 61 -30 14 -30 49 -38 58 -14 3 8 -2 26 -12 41 -14 21 -15 30
-5 51 10 22 8 29 -18 55 -30 30 -60 34 -146 22z m105 -48 c21 -25 -6 -47 -54
-43 -31 2 -42 8 -44 22 -2 10 2 22 10 27 21 14 75 10 88 -6z"/>
<path d="M2790 223 c-45 -9 -49 -19 -47 -119 2 -51 6 -96 10 -100 10 -10 46
38 47 62 0 27 17 34 79 34 37 0 52 5 69 23 64 68 -25 124 -158 100z m114 -56
c13 -21 -5 -37 -46 -37 -53 0 -73 21 -46 48 18 18 79 11 92 -11z"/>
<path d="M27 187 c-3 -8 -2 -20 3 -27 11 -18 42 -4 38 17 -4 22 -34 29 -41 10z"/>
<path d="M143 185 c-8 -22 16 -36 40 -24 23 13 17 33 -11 37 -14 2 -25 -3 -29
-13z"/>
<path d="M613 193 c-20 -7 -15 -31 7 -38 21 -7 40 0 40 15 0 13 -32 28 -47 23z"/>
<path d="M726 191 c-10 -16 5 -41 26 -41 14 0 19 6 16 22 -3 24 -32 36 -42 19z"/>
<path d="M842 178 c2 -12 10 -23 18 -23 22 0 19 39 -3 43 -15 3 -18 -1 -15
-20z"/>
<path d="M1084 186 c-4 -10 -2 -22 4 -28 8 -8 13 -7 18 6 4 10 2 22 -4 28 -8
8 -13 7 -18 -6z"/>
<path d="M1180 176 c0 -28 24 -41 39 -22 15 18 3 46 -20 46 -13 0 -19 -7 -19
-24z"/>
<path d="M1300 190 c-13 -9 -12 -12 4 -25 26 -19 45 -19 53 1 10 27 -28 43
-57 24z"/>
<path d="M1585 190 c-8 -13 13 -40 31 -40 8 0 14 10 14 25 0 18 -5 25 -19 25
-11 0 -23 -5 -26 -10z"/>
<path d="M1712 183 c2 -10 10 -18 18 -18 8 0 16 8 18 18 2 12 -3 17 -18 17
-15 0 -20 -5 -18 -17z"/>
<path d="M262 178 c6 -18 28 -21 28 -4 0 9 -7 16 -16 16 -9 0 -14 -5 -12 -12z"/>
<path d="M360 175 c0 -9 9 -15 25 -15 16 0 25 6 25 15 0 9 -9 15 -25 15 -16 0
-25 -6 -25 -15z"/>
<path d="M1432 173 c5 -25 28 -28 28 -4 0 12 -6 21 -16 21 -9 0 -14 -7 -12
-17z"/>
<path d="M1676 83 c-11 -11 -6 -23 9 -23 8 0 15 4 15 9 0 13 -16 22 -24 14z"/>
<path d="M1730 75 c-10 -12 -9 -16 5 -21 19 -8 40 9 31 25 -10 15 -21 14 -36
-4z"/>
<path d="M1450 71 c0 -6 5 -13 10 -16 6 -3 10 1 10 9 0 9 -4 16 -10 16 -5 0
-10 -4 -10 -9z"/>
<path d="M2972 28 c-18 -18 -15 -28 8 -28 13 0 20 7 20 20 0 23 -10 26 -28 8z"/>
</g>
</svg>
