<?xml version="1.0" standalone="no"?>
<!DOCTYPE svg PUBLIC "-//W3C//DTD SVG 20010904//EN"
 "http://www.w3.org/TR/2001/REC-SVG-20010904/DTD/svg10.dtd">
<svg version="1.0" xmlns="http://www.w3.org/2000/svg"
 width="400.000000pt" height="400.000000pt" viewBox="0 0 400.000000 400.000000"
 preserveAspectRatio="xMidYMid meet">
<metadata>
Created by potrace 1.11, written by Peter Selinger 2001-2013
</metadata>
<g transform="translate(0.000000,400.000000) scale(0.100000,-0.100000)"
fill="#000000" stroke="none">
<path d="M1272 2727 l-251 -222 -1 -330 c0 -352 9 -460 51 -585 24 -75 45
-117 89 -180 l32 -45 -6 35 c-46 248 -46 251 -46 651 l0 388 189 167 c104 92
191 167 194 168 3 1 89 -73 191 -164 l186 -165 0 -212 0 -213 -150 0 -150 0 0
95 0 95 -65 0 -65 0 0 -160 0 -160 280 0 280 0 -1 308 0 307 -200 175 c-110
96 -223 196 -252 222 l-53 46 -252 -221z"/>
<path d="M1384 2919 c-10 -11 -114 -105 -231 -207 -117 -103 -213 -190 -213
-194 0 -5 7 -8 16 -8 19 0 42 19 312 259 170 150 189 171 164 171 -17 0 -37
-9 -48 -21z"/>
<path d="M1078 2734 c-123 -108 -224 -198 -226 -199 -1 -1 6 -5 17 -8 18 -4
97 59 276 222 22 20 77 69 123 109 69 60 78 72 58 72 -18 0 -88 -56 -248 -196z"/>
<path d="M985 2739 c-113 -99 -205 -185 -205 -190 0 -27 48 9 239 177 116 102
211 188 211 190 0 2 -9 4 -20 4 -11 0 -107 -78 -225 -181z"/>
<path d="M904 2754 c-232 -202 -219 -190 -201 -197 15 -6 44 17 242 193 65 58
132 117 149 132 28 25 29 27 10 28 -14 0 -87 -58 -200 -156z"/>
<path d="M968 2886 c-14 -8 -41 -27 -60 -44 -18 -16 -93 -82 -165 -147 -73
-64 -133 -119 -133 -121 0 -2 6 -4 14 -4 18 0 107 79 101 90 -3 4 1 7 8 6 12
-1 100 73 221 186 54 51 57 56 14 34z"/>
<path d="M851 2368 c9 -7 14 -19 12 -25 -6 -18 4 -16 11 2 3 9 -3 19 -17 25
-19 10 -20 9 -6 -2z"/>
<path d="M546 2342 c-3 -5 1 -9 9 -9 8 0 12 4 9 9 -3 4 -7 8 -9 8 -2 0 -6 -4
-9 -8z"/>
<path d="M835 2321 c-3 -5 -2 -12 3 -15 5 -3 9 1 9 9 0 17 -3 19 -12 6z"/>
<path d="M511 2287 c-13 -21 -12 -21 5 -5 10 10 16 20 13 22 -3 3 -11 -5 -18
-17z"/>
<path d="M816 2283 c-6 -14 -5 -15 5 -6 7 7 10 15 7 18 -3 3 -9 -2 -12 -12z"/>
<path d="M479 2247 c6 -8 7 -18 3 -22 -4 -5 -1 -5 6 -1 10 6 10 11 1 22 -6 8
-14 14 -16 14 -3 0 0 -6 6 -13z"/>
<path d="M415 2200 c-3 -5 -1 -10 4 -10 6 0 11 5 11 10 0 6 -2 10 -4 10 -3 0
-8 -4 -11 -10z"/>
<path d="M449 2193 c-13 -16 -12 -17 4 -4 9 7 17 15 17 17 0 8 -8 3 -21 -13z"/>
<path d="M305 2141 c-3 -6 4 -8 16 -6 30 6 37 15 11 15 -11 0 -23 -4 -27 -9z"/>
<path d="M810 2129 c-22 -18 -22 -19 -3 -10 12 6 25 16 28 21 9 15 3 12 -25
-11z"/>
<path d="M240 2107 c0 -2 6 -10 14 -16 11 -9 16 -9 22 1 4 7 4 10 -1 6 -4 -4
-14 -3 -22 3 -7 6 -13 9 -13 6z"/>
<path d="M1360 2101 c0 -6 4 -13 10 -16 6 -3 7 1 4 9 -7 18 -14 21 -14 7z"/>
<path d="M750 2090 c-9 -6 -10 -10 -3 -10 6 0 15 5 18 10 8 12 4 12 -15 0z"/>
<path d="M287 2069 c7 -7 15 -10 18 -7 3 3 -2 9 -12 12 -14 6 -15 5 -6 -5z"/>
<path d="M759 2063 c-13 -16 -12 -17 4 -4 9 7 17 15 17 17 0 8 -8 3 -21 -13z"/>
<path d="M1326 2067 c3 -10 9 -15 12 -12 3 3 0 11 -7 18 -10 9 -11 8 -5 -6z"/>
<path d="M568 2033 c7 -3 16 -2 19 1 4 3 -2 6 -13 5 -11 0 -14 -3 -6 -6z"/>
<path d="M1470 1534 l0 -185 43 3 42 3 0 82 c-1 45 1 80 3 78 2 -2 14 -39 27
-82 22 -77 22 -78 56 -78 33 0 33 1 56 79 12 43 25 81 28 84 2 3 4 -33 2 -79
l-2 -84 43 -3 42 -3 0 185 0 186 -55 0 c-61 0 -54 12 -91 -144 -10 -42 -21
-73 -24 -69 -4 5 -14 35 -22 68 -9 33 -21 79 -28 103 l-11 42 -54 0 -55 0 0
-186z"/>
<path d="M1872 1538 l3 -183 43 -3 42 -3 0 185 0 186 -45 0 -45 0 2 -182z"/>
<path d="M2030 1534 l0 -185 43 3 42 3 5 94 5 94 42 -94 42 -94 43 0 43 0 3
183 2 182 -45 0 -45 0 -1 -97 0 -98 -46 98 -46 97 -43 0 -44 0 0 -186z"/>
<path d="M2350 1534 l0 -185 43 3 42 3 3 78 3 77 44 0 45 0 0 -81 0 -80 43 3
42 3 3 183 2 182 -45 0 -45 0 0 -75 0 -75 -45 0 -45 0 0 75 0 75 -45 0 -45 0
0 -186z"/>
<path d="M2920 1709 c0 -5 9 -9 20 -9 11 0 20 2 20 4 0 2 -9 6 -20 9 -11 3
-20 1 -20 -4z"/>
<path d="M3428 1713 c6 -2 18 -2 25 0 6 3 1 5 -13 5 -14 0 -19 -2 -12 -5z"/>
<path d="M3000 1678 c0 -9 7 -19 16 -22 15 -6 15 -4 3 11 -7 10 -15 20 -16 22
-2 2 -3 -3 -3 -11z"/>
<path d="M2886 1665 c-9 -26 -7 -32 5 -12 6 10 9 21 6 23 -2 3 -7 -2 -11 -11z"/>
<path d="M3600 1611 c0 -6 4 -13 10 -16 6 -3 7 1 4 9 -7 18 -14 21 -14 7z"/>
<path d="M3466 1588 c3 -5 10 -6 15 -3 13 9 11 12 -6 12 -8 0 -12 -4 -9 -9z"/>
<path d="M3540 1580 c-6 -11 -8 -20 -6 -20 3 0 10 9 16 20 6 11 8 20 6 20 -3
0 -10 -9 -16 -20z"/>
<path d="M3496 1523 c-6 -14 -5 -15 5 -6 7 7 10 15 7 18 -3 3 -9 -2 -12 -12z"/>
<path d="M3527 1519 c7 -7 15 -10 18 -7 3 3 -2 9 -12 12 -14 6 -15 5 -6 -5z"/>
<path d="M826 1508 c3 -5 10 -6 15 -3 13 9 11 12 -6 12 -8 0 -12 -4 -9 -9z"/>
<path d="M1412 1500 c0 -14 2 -19 5 -12 2 6 2 18 0 25 -3 6 -5 1 -5 -13z"/>
<path d="M2975 1489 c-4 -6 -5 -12 -2 -15 2 -3 7 2 10 11 7 17 1 20 -8 4z"/>
<path d="M3181 1434 c0 -11 3 -14 6 -6 3 7 2 16 -1 19 -3 4 -6 -2 -5 -13z"/>
<path d="M860 1420 c6 -11 13 -20 16 -20 2 0 0 9 -6 20 -6 11 -13 20 -16 20
-2 0 0 -9 6 -20z"/>
<path d="M3304 1421 c0 -11 4 -17 8 -15 4 3 8 12 8 20 0 8 -4 14 -8 14 -4 0
-8 -9 -8 -19z"/>
<path d="M3007 1417 c3 -4 -3 -18 -13 -30 -10 -12 -4 -9 14 7 17 17 32 30 32
31 0 0 -9 1 -19 1 -11 0 -17 -4 -14 -9z"/>
<path d="M3326 1402 l-19 -27 24 22 c12 12 21 24 18 27 -2 2 -13 -8 -23 -22z"/>
<path d="M2887 1407 c-3 -8 -2 -20 3 -26 5 -9 8 -4 8 13 0 29 -3 32 -11 13z"/>
<path d="M3240 1406 c0 -2 7 -7 16 -10 8 -3 12 -2 9 4 -6 10 -25 14 -25 6z"/>
<path d="M890 1381 c0 -6 4 -13 10 -16 6 -3 7 1 4 9 -7 18 -14 21 -14 7z"/>
<path d="M3140 1386 c0 -2 7 -7 16 -10 8 -3 12 -2 9 4 -6 10 -25 14 -25 6z"/>
<path d="M1050 1346 c0 -2 8 -10 18 -17 15 -13 16 -12 3 4 -13 16 -21 21 -21
13z"/>
<path d="M1046 1316 c3 -8 13 -17 22 -21 13 -5 13 -2 -3 15 -21 24 -26 25 -19
6z"/>
<path d="M945 1310 c-3 -5 -1 -10 4 -10 6 0 11 5 11 10 0 6 -2 10 -4 10 -3 0
-8 -4 -11 -10z"/>
<path d="M1150 1256 c0 -2 8 -10 18 -17 15 -13 16 -12 3 4 -13 16 -21 21 -21
13z"/>
<path d="M1124 1231 c0 -11 5 -17 13 -14 10 4 11 9 2 19 -15 18 -15 18 -15 -5z"/>
<path d="M1203 1205 c0 -8 4 -12 9 -9 5 3 6 10 3 15 -9 13 -12 11 -12 -6z"/>
<path d="M1471 1191 c-15 -27 -14 -83 2 -105 20 -27 81 -19 85 12 4 26 -15 29
-34 5 -12 -16 -15 -16 -24 -3 -11 15 -7 77 5 89 4 3 12 -2 19 -12 19 -24 38
-21 34 6 -4 31 -71 38 -87 8z"/>
<path d="M1670 1184 c-25 -65 -5 -114 45 -114 39 0 55 20 55 70 0 50 -16 70
-56 70 -28 0 -36 -5 -44 -26z m70 -44 c0 -9 -6 -25 -14 -35 -14 -19 -15 -19
-27 8 -10 22 -10 32 0 54 12 27 13 27 27 8 8 -10 14 -26 14 -35z"/>
<path d="M1870 1140 c0 -56 3 -70 15 -70 10 0 15 11 16 38 l1 37 16 -37 c10
-23 24 -38 35 -38 15 0 17 10 17 70 0 56 -3 70 -15 70 -11 0 -15 -11 -15 -37
l-1 -38 -20 38 c-32 60 -49 49 -49 -33z"/>
<path d="M2081 1196 c-17 -21 -6 -51 24 -64 14 -6 25 -18 25 -27 0 -18 -4 -19
-30 -3 -24 15 -37 4 -20 -17 8 -10 25 -15 44 -13 26 3 31 8 34 33 2 25 -3 33
-29 48 -26 14 -30 20 -19 30 10 9 14 9 17 0 7 -20 35 -16 31 5 -4 22 -60 29
-77 8z"/>
<path d="M2260 1200 c0 -5 7 -10 15 -10 12 0 15 -13 15 -60 0 -47 3 -60 15
-60 12 0 15 13 15 56 0 47 3 57 20 61 37 10 20 23 -30 23 -27 0 -50 -4 -50
-10z"/>
<path d="M2450 1140 c0 -56 3 -70 15 -70 9 0 15 9 15 25 0 14 4 25 9 25 5 0
12 -11 15 -25 4 -16 13 -25 26 -25 23 0 24 4 10 29 -6 12 -5 29 2 49 16 41 -2
62 -53 62 l-39 0 0 -70z m56 14 c-5 -13 -10 -14 -18 -6 -6 6 -8 18 -4 28 5 13
10 14 18 6 6 -6 8 -18 4 -28z"/>
<path d="M2640 1159 c0 -65 13 -89 48 -89 41 0 52 17 52 82 0 44 -3 58 -15 58
-10 0 -15 -15 -17 -57 -4 -81 -28 -85 -28 -4 0 54 -2 61 -20 61 -17 0 -20 -7
-20 -51z"/>
<path d="M2852 1198 c-16 -16 -16 -100 0 -116 18 -18 75 -15 82 4 14 37 -6 48
-30 17 -12 -16 -15 -16 -24 -3 -5 8 -10 26 -10 40 0 14 5 32 10 40 9 13 12 13
24 -2 16 -21 36 -24 36 -5 0 33 -62 51 -88 25z"/>
<path d="M3030 1201 c0 -5 9 -11 20 -14 17 -4 20 -14 20 -61 0 -43 3 -56 15
-56 12 0 15 13 15 60 0 47 3 60 15 60 8 0 15 5 15 10 0 6 -22 10 -50 10 -27 0
-50 -4 -50 -9z"/>
<path d="M3230 1140 c0 -56 3 -70 15 -70 12 0 15 14 15 70 0 56 -3 70 -15 70
-12 0 -15 -14 -15 -70z"/>
<path d="M3382 1198 c-16 -16 -16 -100 0 -116 7 -7 24 -12 38 -12 14 0 31 5
38 12 15 15 16 82 2 109 -12 22 -59 26 -78 7z m54 -33 c8 -33 -3 -77 -19 -72
-13 4 -22 60 -13 83 8 22 25 16 32 -11z"/>
<path d="M3570 1140 c0 -56 3 -70 15 -70 11 0 15 11 15 38 l1 37 20 -37 c32
-61 49 -50 49 32 0 56 -3 70 -15 70 -10 0 -15 -11 -16 -37 l-1 -38 -16 37
c-10 23 -24 38 -34 38 -16 0 -18 -10 -18 -70z"/>
<path d="M1100 1196 c0 -2 8 -10 18 -17 15 -13 16 -12 3 4 -13 16 -21 21 -21
13z"/>
<path d="M1230 1196 c0 -2 8 -10 18 -17 15 -13 16 -12 3 4 -13 16 -21 21 -21
13z"/>
<path d="M1287 1129 c7 -7 15 -10 18 -7 3 3 -2 9 -12 12 -14 6 -15 5 -6 -5z"/>
<path d="M1264 1101 c4 -5 1 -11 -6 -13 -7 -3 -5 -7 6 -11 10 -4 15 -3 11 3
-3 6 -1 10 5 10 6 0 8 5 5 10 -3 6 -11 10 -16 10 -6 0 -8 -4 -5 -9z"/>
<path d="M2008 1033 c309 -2 815 -2 1125 0 309 1 56 2 -563 2 -619 0 -872 -1
-562 -2z"/>
</g>
</svg>
